<mxfile host="app.diagrams.net" modified="2023-01-05T12:28:40.415Z" agent="5.0 (Macintosh; Intel Mac OS X 10_15_7) AppleWebKit/537.36 (KHTML, like Gecko) Chrome/108.0.0.0 Safari/537.36" etag="u5icbhew1VE4QdKc_Ocp" version="20.8.1" type="github">
  <diagram id="tT8-m31bYRHAtxVtK0MS" name="第 1 页">
    <mxGraphModel dx="1004" dy="582" grid="1" gridSize="10" guides="1" tooltips="1" connect="1" arrows="1" fold="1" page="1" pageScale="1" pageWidth="827" pageHeight="1169" math="0" shadow="0">
      <root>
        <mxCell id="0" />
        <mxCell id="1" parent="0" />
        <mxCell id="FcTgrj5HQpySsqDrNjkN-7" style="edgeStyle=orthogonalEdgeStyle;rounded=0;orthogonalLoop=1;jettySize=auto;html=1;entryX=0;entryY=0.5;entryDx=0;entryDy=0;" edge="1" parent="1" source="FcTgrj5HQpySsqDrNjkN-1" target="FcTgrj5HQpySsqDrNjkN-2">
          <mxGeometry relative="1" as="geometry" />
        </mxCell>
        <mxCell id="FcTgrj5HQpySsqDrNjkN-1" value="+" style="shape=or;whiteSpace=wrap;html=1;" vertex="1" parent="1">
          <mxGeometry x="270" y="220" width="60" height="80" as="geometry" />
        </mxCell>
        <mxCell id="FcTgrj5HQpySsqDrNjkN-13" style="edgeStyle=orthogonalEdgeStyle;rounded=0;orthogonalLoop=1;jettySize=auto;html=1;fontSize=18;" edge="1" parent="1" source="FcTgrj5HQpySsqDrNjkN-2" target="FcTgrj5HQpySsqDrNjkN-12">
          <mxGeometry relative="1" as="geometry" />
        </mxCell>
        <mxCell id="FcTgrj5HQpySsqDrNjkN-2" value="tanh" style="triangle;whiteSpace=wrap;html=1;" vertex="1" parent="1">
          <mxGeometry x="370" y="220" width="60" height="80" as="geometry" />
        </mxCell>
        <mxCell id="FcTgrj5HQpySsqDrNjkN-5" style="edgeStyle=orthogonalEdgeStyle;rounded=0;orthogonalLoop=1;jettySize=auto;html=1;entryX=0;entryY=0.25;entryDx=0;entryDy=0;entryPerimeter=0;" edge="1" parent="1" source="FcTgrj5HQpySsqDrNjkN-3" target="FcTgrj5HQpySsqDrNjkN-1">
          <mxGeometry relative="1" as="geometry" />
        </mxCell>
        <mxCell id="FcTgrj5HQpySsqDrNjkN-3" value="W&lt;sub&gt;xh&lt;/sub&gt;" style="triangle;whiteSpace=wrap;html=1;" vertex="1" parent="1">
          <mxGeometry x="130" y="160" width="60" height="80" as="geometry" />
        </mxCell>
        <mxCell id="FcTgrj5HQpySsqDrNjkN-6" style="edgeStyle=orthogonalEdgeStyle;rounded=0;orthogonalLoop=1;jettySize=auto;html=1;entryX=0;entryY=0.75;entryDx=0;entryDy=0;entryPerimeter=0;" edge="1" parent="1" source="FcTgrj5HQpySsqDrNjkN-4" target="FcTgrj5HQpySsqDrNjkN-1">
          <mxGeometry relative="1" as="geometry" />
        </mxCell>
        <mxCell id="FcTgrj5HQpySsqDrNjkN-4" value="W&lt;sub&gt;hh&lt;/sub&gt;" style="triangle;whiteSpace=wrap;html=1;" vertex="1" parent="1">
          <mxGeometry x="130" y="280" width="60" height="80" as="geometry" />
        </mxCell>
        <mxCell id="FcTgrj5HQpySsqDrNjkN-10" style="edgeStyle=orthogonalEdgeStyle;rounded=0;orthogonalLoop=1;jettySize=auto;html=1;fontSize=18;" edge="1" parent="1" source="FcTgrj5HQpySsqDrNjkN-8" target="FcTgrj5HQpySsqDrNjkN-3">
          <mxGeometry relative="1" as="geometry" />
        </mxCell>
        <mxCell id="FcTgrj5HQpySsqDrNjkN-8" value="x&lt;sub style=&quot;font-size: 18px;&quot;&gt;t&lt;/sub&gt;" style="text;html=1;align=center;verticalAlign=middle;resizable=0;points=[];autosize=1;strokeColor=none;fillColor=none;fontSize=18;" vertex="1" parent="1">
          <mxGeometry x="65" y="180" width="40" height="40" as="geometry" />
        </mxCell>
        <mxCell id="FcTgrj5HQpySsqDrNjkN-11" style="edgeStyle=orthogonalEdgeStyle;rounded=0;orthogonalLoop=1;jettySize=auto;html=1;fontSize=18;" edge="1" parent="1" source="FcTgrj5HQpySsqDrNjkN-9" target="FcTgrj5HQpySsqDrNjkN-4">
          <mxGeometry relative="1" as="geometry" />
        </mxCell>
        <mxCell id="FcTgrj5HQpySsqDrNjkN-9" value="&lt;span style=&quot;font-size: 18px;&quot;&gt;h&lt;/span&gt;&lt;span style=&quot;font-size: 18px;&quot;&gt;&lt;sub&gt;t-1&lt;/sub&gt;&lt;/span&gt;" style="text;html=1;align=center;verticalAlign=middle;resizable=0;points=[];autosize=1;strokeColor=none;fillColor=none;fontSize=18;" vertex="1" parent="1">
          <mxGeometry x="60" y="300" width="50" height="40" as="geometry" />
        </mxCell>
        <mxCell id="FcTgrj5HQpySsqDrNjkN-12" value="h&lt;sub&gt;t&lt;/sub&gt;" style="text;html=1;align=center;verticalAlign=middle;resizable=0;points=[];autosize=1;strokeColor=none;fillColor=none;fontSize=18;" vertex="1" parent="1">
          <mxGeometry x="460" y="240" width="40" height="40" as="geometry" />
        </mxCell>
        <mxCell id="FcTgrj5HQpySsqDrNjkN-15" style="edgeStyle=orthogonalEdgeStyle;rounded=0;orthogonalLoop=1;jettySize=auto;html=1;entryX=0;entryY=0.5;entryDx=0;entryDy=0;" edge="1" parent="1" source="FcTgrj5HQpySsqDrNjkN-16" target="FcTgrj5HQpySsqDrNjkN-18">
          <mxGeometry relative="1" as="geometry" />
        </mxCell>
        <mxCell id="FcTgrj5HQpySsqDrNjkN-16" value="+" style="shape=or;whiteSpace=wrap;html=1;" vertex="1" parent="1">
          <mxGeometry x="460" y="460" width="60" height="80" as="geometry" />
        </mxCell>
        <mxCell id="FcTgrj5HQpySsqDrNjkN-17" style="edgeStyle=orthogonalEdgeStyle;rounded=0;orthogonalLoop=1;jettySize=auto;html=1;fontSize=18;entryX=0;entryY=0.5;entryDx=0;entryDy=0;" edge="1" parent="1" source="FcTgrj5HQpySsqDrNjkN-18" target="FcTgrj5HQpySsqDrNjkN-53">
          <mxGeometry relative="1" as="geometry">
            <mxPoint x="650" y="500" as="targetPoint" />
          </mxGeometry>
        </mxCell>
        <mxCell id="FcTgrj5HQpySsqDrNjkN-18" value="tanh" style="triangle;whiteSpace=wrap;html=1;" vertex="1" parent="1">
          <mxGeometry x="560" y="460" width="60" height="80" as="geometry" />
        </mxCell>
        <mxCell id="FcTgrj5HQpySsqDrNjkN-19" style="edgeStyle=orthogonalEdgeStyle;rounded=0;orthogonalLoop=1;jettySize=auto;html=1;entryX=0;entryY=0.25;entryDx=0;entryDy=0;entryPerimeter=0;" edge="1" parent="1" source="FcTgrj5HQpySsqDrNjkN-20" target="FcTgrj5HQpySsqDrNjkN-16">
          <mxGeometry relative="1" as="geometry" />
        </mxCell>
        <mxCell id="FcTgrj5HQpySsqDrNjkN-20" value="W&lt;sub&gt;xh&lt;/sub&gt;" style="triangle;whiteSpace=wrap;html=1;" vertex="1" parent="1">
          <mxGeometry x="320" y="400" width="60" height="80" as="geometry" />
        </mxCell>
        <mxCell id="FcTgrj5HQpySsqDrNjkN-21" style="edgeStyle=orthogonalEdgeStyle;rounded=0;orthogonalLoop=1;jettySize=auto;html=1;entryX=0;entryY=0.75;entryDx=0;entryDy=0;entryPerimeter=0;" edge="1" parent="1" source="FcTgrj5HQpySsqDrNjkN-22" target="FcTgrj5HQpySsqDrNjkN-16">
          <mxGeometry relative="1" as="geometry" />
        </mxCell>
        <mxCell id="FcTgrj5HQpySsqDrNjkN-22" value="W&lt;sub&gt;hh&lt;/sub&gt;" style="triangle;whiteSpace=wrap;html=1;" vertex="1" parent="1">
          <mxGeometry x="320" y="520" width="60" height="80" as="geometry" />
        </mxCell>
        <mxCell id="FcTgrj5HQpySsqDrNjkN-23" style="edgeStyle=orthogonalEdgeStyle;rounded=0;orthogonalLoop=1;jettySize=auto;html=1;fontSize=18;" edge="1" parent="1" source="FcTgrj5HQpySsqDrNjkN-24" target="FcTgrj5HQpySsqDrNjkN-20">
          <mxGeometry relative="1" as="geometry" />
        </mxCell>
        <mxCell id="FcTgrj5HQpySsqDrNjkN-24" value="x&lt;sub style=&quot;font-size: 18px;&quot;&gt;t&lt;/sub&gt;" style="text;html=1;align=center;verticalAlign=middle;resizable=0;points=[];autosize=1;strokeColor=none;fillColor=none;fontSize=18;" vertex="1" parent="1">
          <mxGeometry x="30" y="420" width="40" height="40" as="geometry" />
        </mxCell>
        <mxCell id="FcTgrj5HQpySsqDrNjkN-25" style="edgeStyle=orthogonalEdgeStyle;rounded=0;orthogonalLoop=1;jettySize=auto;html=1;fontSize=18;exitX=1;exitY=0.5;exitDx=0;exitDy=0;" edge="1" parent="1" source="FcTgrj5HQpySsqDrNjkN-45" target="FcTgrj5HQpySsqDrNjkN-22">
          <mxGeometry relative="1" as="geometry">
            <mxPoint x="295" y="560" as="sourcePoint" />
          </mxGeometry>
        </mxCell>
        <mxCell id="FcTgrj5HQpySsqDrNjkN-50" value="h&lt;sub&gt;t-1&lt;/sub&gt;" style="edgeLabel;html=1;align=center;verticalAlign=middle;resizable=0;points=[];fontSize=18;" vertex="1" connectable="0" parent="FcTgrj5HQpySsqDrNjkN-25">
          <mxGeometry x="-0.0511" relative="1" as="geometry">
            <mxPoint as="offset" />
          </mxGeometry>
        </mxCell>
        <mxCell id="FcTgrj5HQpySsqDrNjkN-28" value="+" style="shape=or;whiteSpace=wrap;html=1;" vertex="1" parent="1">
          <mxGeometry x="730" y="490" width="60" height="80" as="geometry" />
        </mxCell>
        <mxCell id="FcTgrj5HQpySsqDrNjkN-48" style="edgeStyle=orthogonalEdgeStyle;rounded=0;orthogonalLoop=1;jettySize=auto;html=1;entryX=0;entryY=0.5;entryDx=0;entryDy=0;fontSize=18;" edge="1" parent="1" source="FcTgrj5HQpySsqDrNjkN-29" target="FcTgrj5HQpySsqDrNjkN-44">
          <mxGeometry relative="1" as="geometry" />
        </mxCell>
        <mxCell id="FcTgrj5HQpySsqDrNjkN-29" value="tanh" style="triangle;whiteSpace=wrap;html=1;" vertex="1" parent="1">
          <mxGeometry x="90" y="520" width="60" height="80" as="geometry" />
        </mxCell>
        <mxCell id="FcTgrj5HQpySsqDrNjkN-31" style="edgeStyle=orthogonalEdgeStyle;rounded=0;orthogonalLoop=1;jettySize=auto;html=1;entryX=0;entryY=0.5;entryDx=0;entryDy=0;fontSize=18;" edge="1" parent="1" source="FcTgrj5HQpySsqDrNjkN-30" target="FcTgrj5HQpySsqDrNjkN-29">
          <mxGeometry relative="1" as="geometry" />
        </mxCell>
        <mxCell id="FcTgrj5HQpySsqDrNjkN-70" style="edgeStyle=orthogonalEdgeStyle;rounded=0;orthogonalLoop=1;jettySize=auto;html=1;entryX=0;entryY=0.5;entryDx=0;entryDy=0;fontSize=10;" edge="1" parent="1" source="FcTgrj5HQpySsqDrNjkN-30" target="FcTgrj5HQpySsqDrNjkN-66">
          <mxGeometry relative="1" as="geometry">
            <Array as="points">
              <mxPoint x="45" y="610" />
            </Array>
          </mxGeometry>
        </mxCell>
        <mxCell id="FcTgrj5HQpySsqDrNjkN-30" value="&lt;span style=&quot;font-size: 18px;&quot;&gt;c&lt;/span&gt;&lt;span style=&quot;font-size: 18px;&quot;&gt;&lt;sub&gt;t-1&lt;/sub&gt;&lt;/span&gt;" style="text;html=1;align=center;verticalAlign=middle;resizable=0;points=[];autosize=1;strokeColor=none;fillColor=none;fontSize=18;" vertex="1" parent="1">
          <mxGeometry x="20" y="540" width="50" height="40" as="geometry" />
        </mxCell>
        <mxCell id="FcTgrj5HQpySsqDrNjkN-47" value="" style="group" vertex="1" connectable="0" parent="1">
          <mxGeometry x="177" y="534" width="50" height="30" as="geometry" />
        </mxCell>
        <mxCell id="FcTgrj5HQpySsqDrNjkN-44" value="" style="ellipse;whiteSpace=wrap;html=1;aspect=fixed;fontSize=18;" vertex="1" parent="FcTgrj5HQpySsqDrNjkN-47">
          <mxGeometry y="20" width="10" height="10" as="geometry" />
        </mxCell>
        <mxCell id="FcTgrj5HQpySsqDrNjkN-45" value="" style="ellipse;whiteSpace=wrap;html=1;aspect=fixed;fontSize=18;" vertex="1" parent="FcTgrj5HQpySsqDrNjkN-47">
          <mxGeometry x="40" y="20" width="10" height="10" as="geometry" />
        </mxCell>
        <mxCell id="FcTgrj5HQpySsqDrNjkN-46" value="" style="endArrow=none;html=1;rounded=0;fontSize=18;exitX=1;exitY=0;exitDx=0;exitDy=0;" edge="1" parent="FcTgrj5HQpySsqDrNjkN-47" source="FcTgrj5HQpySsqDrNjkN-44">
          <mxGeometry width="50" height="50" relative="1" as="geometry">
            <mxPoint x="110" y="100" as="sourcePoint" />
            <mxPoint x="40" as="targetPoint" />
          </mxGeometry>
        </mxCell>
        <mxCell id="FcTgrj5HQpySsqDrNjkN-51" value="&lt;span style=&quot;font-size: 10px;&quot;&gt;o&lt;/span&gt;&lt;sub style=&quot;font-size: 10px;&quot;&gt;t-1&lt;/sub&gt;" style="edgeLabel;html=1;align=center;verticalAlign=middle;resizable=0;points=[];fontSize=10;" vertex="1" connectable="0" parent="FcTgrj5HQpySsqDrNjkN-46">
          <mxGeometry x="-0.1297" y="-1" relative="1" as="geometry">
            <mxPoint x="2" y="23" as="offset" />
          </mxGeometry>
        </mxCell>
        <mxCell id="FcTgrj5HQpySsqDrNjkN-52" value="" style="group" vertex="1" connectable="0" parent="1">
          <mxGeometry x="650" y="476" width="50" height="30" as="geometry" />
        </mxCell>
        <mxCell id="FcTgrj5HQpySsqDrNjkN-53" value="" style="ellipse;whiteSpace=wrap;html=1;aspect=fixed;fontSize=18;" vertex="1" parent="FcTgrj5HQpySsqDrNjkN-52">
          <mxGeometry y="20" width="10" height="10" as="geometry" />
        </mxCell>
        <mxCell id="FcTgrj5HQpySsqDrNjkN-54" value="" style="ellipse;whiteSpace=wrap;html=1;aspect=fixed;fontSize=18;" vertex="1" parent="FcTgrj5HQpySsqDrNjkN-52">
          <mxGeometry x="40" y="20" width="10" height="10" as="geometry" />
        </mxCell>
        <mxCell id="FcTgrj5HQpySsqDrNjkN-55" value="" style="endArrow=none;html=1;rounded=0;fontSize=18;exitX=1;exitY=0;exitDx=0;exitDy=0;" edge="1" parent="FcTgrj5HQpySsqDrNjkN-52" source="FcTgrj5HQpySsqDrNjkN-53">
          <mxGeometry width="50" height="50" relative="1" as="geometry">
            <mxPoint x="110" y="100" as="sourcePoint" />
            <mxPoint x="40" as="targetPoint" />
          </mxGeometry>
        </mxCell>
        <mxCell id="FcTgrj5HQpySsqDrNjkN-56" value="&lt;span style=&quot;font-size: 10px;&quot;&gt;o&lt;/span&gt;&lt;sub style=&quot;font-size: 10px;&quot;&gt;t-1&lt;/sub&gt;" style="edgeLabel;html=1;align=center;verticalAlign=middle;resizable=0;points=[];fontSize=10;" vertex="1" connectable="0" parent="FcTgrj5HQpySsqDrNjkN-55">
          <mxGeometry x="-0.1297" y="-1" relative="1" as="geometry">
            <mxPoint x="2" y="23" as="offset" />
          </mxGeometry>
        </mxCell>
        <mxCell id="FcTgrj5HQpySsqDrNjkN-57" style="edgeStyle=orthogonalEdgeStyle;rounded=0;orthogonalLoop=1;jettySize=auto;html=1;entryX=0;entryY=0.25;entryDx=0;entryDy=0;entryPerimeter=0;fontSize=10;" edge="1" parent="1" source="FcTgrj5HQpySsqDrNjkN-54" target="FcTgrj5HQpySsqDrNjkN-28">
          <mxGeometry relative="1" as="geometry" />
        </mxCell>
        <mxCell id="FcTgrj5HQpySsqDrNjkN-65" value="" style="group" vertex="1" connectable="0" parent="1">
          <mxGeometry x="550" y="585" width="50" height="30" as="geometry" />
        </mxCell>
        <mxCell id="FcTgrj5HQpySsqDrNjkN-66" value="" style="ellipse;whiteSpace=wrap;html=1;aspect=fixed;fontSize=18;" vertex="1" parent="FcTgrj5HQpySsqDrNjkN-65">
          <mxGeometry y="20" width="10" height="10" as="geometry" />
        </mxCell>
        <mxCell id="FcTgrj5HQpySsqDrNjkN-67" value="" style="ellipse;whiteSpace=wrap;html=1;aspect=fixed;fontSize=18;" vertex="1" parent="FcTgrj5HQpySsqDrNjkN-65">
          <mxGeometry x="40" y="20" width="10" height="10" as="geometry" />
        </mxCell>
        <mxCell id="FcTgrj5HQpySsqDrNjkN-68" value="" style="endArrow=none;html=1;rounded=0;fontSize=18;exitX=1;exitY=0;exitDx=0;exitDy=0;" edge="1" parent="FcTgrj5HQpySsqDrNjkN-65" source="FcTgrj5HQpySsqDrNjkN-66">
          <mxGeometry width="50" height="50" relative="1" as="geometry">
            <mxPoint x="110" y="100" as="sourcePoint" />
            <mxPoint x="40" as="targetPoint" />
          </mxGeometry>
        </mxCell>
        <mxCell id="FcTgrj5HQpySsqDrNjkN-69" value="&lt;span style=&quot;font-size: 10px;&quot;&gt;o&lt;/span&gt;&lt;sub style=&quot;font-size: 10px;&quot;&gt;t-1&lt;/sub&gt;" style="edgeLabel;html=1;align=center;verticalAlign=middle;resizable=0;points=[];fontSize=10;" vertex="1" connectable="0" parent="FcTgrj5HQpySsqDrNjkN-68">
          <mxGeometry x="-0.1297" y="-1" relative="1" as="geometry">
            <mxPoint x="2" y="23" as="offset" />
          </mxGeometry>
        </mxCell>
        <mxCell id="FcTgrj5HQpySsqDrNjkN-71" style="edgeStyle=orthogonalEdgeStyle;rounded=0;orthogonalLoop=1;jettySize=auto;html=1;entryX=0;entryY=0.75;entryDx=0;entryDy=0;entryPerimeter=0;fontSize=10;" edge="1" parent="1" source="FcTgrj5HQpySsqDrNjkN-67" target="FcTgrj5HQpySsqDrNjkN-28">
          <mxGeometry relative="1" as="geometry" />
        </mxCell>
      </root>
    </mxGraphModel>
  </diagram>
</mxfile>
